<svg width="331" height="196" viewBox="0 0 331 196" fill="none" xmlns="http://www.w3.org/2000/svg">
<g clip-path="url(#clip0)">
<path d="M170.16 -9.53674e-06V7.23998L23.35 26.3V19.06L31.35 18L50.71 15.5L70.3 12.95L89.77 10.41L109.01 7.91997L128.6 5.36999L147.96 2.86999L168.86 0.160025C168.969 0.121156 169.071 0.0635909 169.16 -0.0100193H170.16V-9.53674e-06Z" fill="#5B38AA"/>
<path d="M330.48 104.4C329.9 104.64 329.33 104.91 328.74 105.12C328.585 105.187 328.419 105.223 328.25 105.225C328.081 105.227 327.914 105.196 327.757 105.132C327.601 105.069 327.459 104.975 327.339 104.856C327.219 104.738 327.124 104.596 327.06 104.44C325.94 102.6 324.74 100.8 323.57 98.99C323.4 98.73 323.21 98.49 322.95 98.13L318.84 106.49C318.2 107.79 317.34 108.22 315.57 108.02C315.79 107.52 315.98 107.02 316.2 106.62C317.74 103.62 319.28 100.57 320.86 97.57C321.033 97.3099 321.117 97.0004 321.099 96.6883C321.081 96.3762 320.962 96.0785 320.76 95.84C319.33 93.84 317.96 91.75 316.57 89.7C316.31 89.31 316.08 88.89 315.84 88.5C317.32 87.17 318.51 87.27 319.5 88.75L323.12 94.18L327.12 86.18C327.73 84.96 328.65 84.52 330.29 84.75C330.08 85.24 329.91 85.75 329.69 86.15C328.21 89.07 326.69 91.98 325.25 94.91C325.144 95.0851 325.074 95.2799 325.044 95.4827C325.015 95.6855 325.027 95.892 325.08 96.09C326.85 98.74 328.69 101.34 330.51 103.96V104.44L330.48 104.4Z" fill="#5B38AA"/>
<path d="M0 111.84C1.43 109.13 2.71003 106.33 4.34003 103.74C5.62003 101.74 5.50998 100.18 3.97998 98.37C2.6267 96.6082 1.36829 94.7756 0.210022 92.88C1.61002 91.49 2.91 91.58 3.88 93.04L7.51001 98.49L9.79999 93.92L11.5 90.48C12.12 89.24 12.96 88.82 14.68 89C14.47 89.5 14.31 90 14.09 90.4C12.65 93.25 11.22 96.11 9.72003 98.94C9.5167 99.2388 9.4164 99.5958 9.43445 99.9568C9.4525 100.318 9.58789 100.663 9.82001 100.94C11.42 103.18 12.91 105.51 14.48 107.77C15.06 108.6 14.8 108.94 13.94 109.2C12.27 109.72 12.13 109.7 11.21 108.27L7.38 102.34L3.22998 110.77C2.97067 111.371 2.49935 111.857 1.90564 112.133C1.31193 112.41 0.637284 112.458 0.0100098 112.27V111.79L0 111.84Z" fill="#5B38AA"/>
<path d="M67.5 38.14V39.53C67.5 74.3234 67.5 109.117 67.5 143.91C67.5491 144.108 67.55 144.314 67.5026 144.512C67.4552 144.71 67.3608 144.894 67.2275 145.048C67.0941 145.202 66.9257 145.321 66.7364 145.397C66.5472 145.472 66.3426 145.5 66.14 145.48C63.61 145.76 61.09 146.18 58.4 146.56V97.41C56.24 97.7 54.24 97.95 52.25 98.23C48.58 98.75 44.92 99.36 41.25 99.78C40.11 99.91 40.02 100.36 40.03 101.28C40.03 116.76 40.03 132.28 40.03 147.71C40.03 148.92 39.71 149.37 38.51 149.5C36.01 149.77 33.51 150.18 30.89 150.55C30.89 150.04 30.82 149.62 30.82 149.19C30.82 114.237 30.82 79.2833 30.82 44.33C30.7741 44.1414 30.775 43.9445 30.8227 43.7563C30.8704 43.5682 30.9634 43.3946 31.0935 43.2506C31.2237 43.1066 31.3871 42.9967 31.5695 42.9303C31.7519 42.864 31.9477 42.8433 32.14 42.87C34.72 42.61 37.28 42.2 40 41.87V91.07L46.15 90.24C49.83 89.73 53.5 89.17 57.15 88.71C57.3315 88.7202 57.5128 88.6875 57.6794 88.6147C57.846 88.5418 57.9931 88.4309 58.1089 88.2908C58.2247 88.1506 58.306 87.9852 58.3461 87.8079C58.3862 87.6306 58.3842 87.4464 58.34 87.27C58.34 71.8767 58.34 56.48 58.34 41.08C58.34 39.35 58.34 39.36 60.06 39.15C62.51 38.81 64.91 38.48 67.5 38.14Z" fill="#5B38AA"/>
<path d="M258.23 106.58C258.23 119.45 258.06 132.33 258.29 145.2C258.43 153.09 252 160.1 244.97 160.93C241.6 161.33 238.25 162.03 234.88 162.25C233.34 162.364 231.793 162.153 230.338 161.633C228.884 161.112 227.555 160.293 226.437 159.227C225.319 158.162 224.436 156.874 223.846 155.446C223.256 154.019 222.971 152.484 223.01 150.94C223.01 124.633 223.01 98.3233 223.01 72.01C223.116 68.2855 224.539 64.7192 227.025 61.9439C229.511 59.1686 232.9 57.3639 236.59 56.85C239.88 56.47 243.16 55.85 246.46 55.66C253.22 55.28 258.23 60.18 258.24 66.99C258.247 80.17 258.243 93.3666 258.23 106.58ZM231.84 110.06C231.84 121.7 231.84 133.34 231.84 144.98C231.779 146.259 232.041 147.533 232.602 148.684C233.163 149.835 234.005 150.826 235.051 151.566C236.096 152.305 237.311 152.769 238.584 152.915C239.856 153.061 241.144 152.884 242.33 152.4C244.466 151.671 246.313 150.279 247.601 148.426C248.889 146.572 249.551 144.356 249.49 142.1C249.49 119.14 249.49 96.18 249.49 73.22C249.49 73.02 249.49 72.82 249.49 72.62C249.3 68.27 246.27 65.05 242.29 64.96C239.564 64.9488 236.943 66.0083 234.991 67.9103C233.038 69.8123 231.91 72.4048 231.85 75.13C231.83 86.7766 231.827 98.42 231.84 110.06V110.06Z" fill="#5B38AA"/>
<path d="M74.26 37.21L110.44 32.33V41.2L83.37 44.88V85L110.53 81.22C110.53 84.1 110.53 86.81 110.53 89.51C110.465 89.6742 110.361 89.82 110.226 89.935C110.092 90.05 109.932 90.1306 109.76 90.17C105.06 90.86 100.36 91.5 95.66 92.17L83.39 93.89V134.05L110.48 130.15C110.48 130.58 110.56 130.93 110.56 131.27C110.56 133.47 110.56 135.67 110.56 137.87C110.601 138.031 110.603 138.199 110.568 138.361C110.532 138.523 110.458 138.674 110.353 138.803C110.248 138.931 110.114 139.033 109.963 139.1C109.811 139.168 109.646 139.198 109.48 139.19C97.9266 140.843 86.3767 142.51 74.83 144.19C74.6435 144.202 74.4565 144.202 74.27 144.19V37.19L74.26 37.21Z" fill="#5B38AA"/>
<path d="M299.46 48.45V57.07L273.37 60.63V99.97L299.43 96.34V105L273.43 108.67V148.06L299.49 144.3V152.99L264.57 158.06V156.57C264.57 122.57 264.57 88.57 264.57 54.57C264.518 54.3466 264.52 54.1139 264.576 53.8913C264.632 53.6688 264.74 53.4629 264.892 53.2907C265.043 53.1185 265.234 52.985 265.447 52.9014C265.661 52.8178 265.892 52.7864 266.12 52.81C276.94 51.39 287.75 49.91 298.56 48.46C298.76 48.46 299.05 48.47 299.46 48.45Z" fill="#5B38AA"/>
<path d="M131.91 62.96L134.91 50.53C136.6 43.53 138.31 36.47 139.97 29.43C140 29.0789 140.16 28.7518 140.419 28.5131C140.679 28.2743 141.018 28.1412 141.37 28.14C144.1 27.82 146.82 27.44 149.74 27.05C149.14 29.53 148.58 31.84 148.02 34.15C144.2 49.7967 140.38 65.4434 136.56 81.09C136.395 81.8284 136.318 82.5836 136.33 83.34C136.33 100.18 136.33 117.02 136.33 133.86C136.381 134.065 136.382 134.278 136.333 134.483C136.284 134.688 136.186 134.878 136.047 135.037C135.909 135.196 135.734 135.32 135.538 135.397C135.342 135.474 135.13 135.502 134.92 135.48C132.38 135.75 129.86 136.19 127.14 136.59V134.97C127.14 118.41 127.2 101.85 127.07 85.29C126.897 82.7514 126.417 80.2431 125.64 77.82C121.8 63.0333 117.927 48.2533 114.02 33.48C113.9 33.02 113.82 32.55 113.68 31.92C115.98 31.6 118.22 31.26 120.46 30.98C123.17 30.63 123.16 30.65 123.85 33.28C126.403 43.04 128.963 52.7966 131.53 62.55C131.53 62.69 131.62 62.83 131.66 62.97H131.92L131.91 62.96Z" fill="#5B38AA"/>
<path d="M190.13 142.41C190.13 144.9 190.13 147.25 190.13 149.6C190.099 150.477 190.126 151.356 190.21 152.23C190.99 157.94 197.21 160.72 202.45 157.66C204.184 156.72 205.62 155.313 206.596 153.599C207.572 151.884 208.048 149.931 207.97 147.96C207.97 119.4 207.97 90.8434 207.97 62.29V60.76L216.71 59.56C216.71 60.04 216.79 60.45 216.79 60.86C216.79 91.2133 216.79 121.57 216.79 151.93C216.708 155.579 215.342 159.083 212.934 161.826C210.526 164.569 207.228 166.376 203.62 166.93C200.31 167.49 196.99 168 193.62 168.31C192.055 168.483 190.471 168.324 188.972 167.842C187.473 167.36 186.092 166.567 184.921 165.514C183.75 164.461 182.815 163.172 182.177 161.733C181.539 160.293 181.213 158.735 181.22 157.16C181.16 153 181.22 148.84 181.22 144.68C181.227 144.471 181.282 144.267 181.381 144.083C181.48 143.9 181.62 143.741 181.79 143.62C184.54 143.16 187.26 142.81 190.13 142.41Z" fill="#5B38AA"/>
<path d="M23.33 171.76V164.52L170.1 145.52V152.76L23.33 171.76Z" fill="#5B38AA"/>
<path d="M304.99 24.1V31.34L161.61 49.95V42.71L304.99 24.1Z" fill="#5B38AA"/>
<path d="M161.57 195.4V188.16L304.95 169.55V176.76L161.57 195.4Z" fill="#5B38AA"/>
</g>
<defs>
<clipPath id="clip0">
<rect width="330.48" height="195.4" fill="white"/>
</clipPath>
</defs>
</svg>
